<svg id="Ebene_1" data-name="Ebene 1" xmlns="http://www.w3.org/2000/svg" xmlns:xlink="http://www.w3.org/1999/xlink" viewBox="0 0 1180.8 1137.6"><defs><style>.cls-1{fill:#8cc63f;}.cls-2{fill:url(#linear-gradient);}.cls-3{fill:url(#linear-gradient-2);}.cls-4{fill:url(#linear-gradient-3);}.cls-5{fill:url(#linear-gradient-4);}.cls-6{fill:url(#linear-gradient-5);}.cls-7{fill:url(#linear-gradient-6);}</style><linearGradient id="linear-gradient" x1="804.815" y1="597.81243" x2="860.45762" y2="597.81243" gradientUnits="userSpaceOnUse"><stop offset="0" stop-color="#39b54a"/><stop offset="1" stop-color="#8cc63f"/></linearGradient><linearGradient id="linear-gradient-2" x1="755.87837" y1="261.04205" x2="755.87837" y2="402.46298" gradientUnits="userSpaceOnUse"><stop offset="0" stop-color="#d9e021"/><stop offset="1" stop-color="#8cc63f" stop-opacity="0.3"/></linearGradient><linearGradient id="linear-gradient-3" x1="147.10212" y1="593.55795" x2="247.12216" y2="493.53791" gradientUnits="userSpaceOnUse"><stop offset="0" stop-color="#39b54a"/><stop offset="0.17226" stop-color="#56bb46"/><stop offset="0.3842" stop-color="#74c142"/><stop offset="0.56712" stop-color="#86c540"/><stop offset="0.6987" stop-color="#8cc63f"/></linearGradient><linearGradient id="linear-gradient-4" x1="118.10342" y1="490.57663" x2="157.2316" y2="558.34863" gradientUnits="userSpaceOnUse"><stop offset="0" stop-color="#d9e021"/><stop offset="0.45914" stop-color="#8cc63f"/></linearGradient><linearGradient id="linear-gradient-5" x1="384.86035" y1="593.56459" x2="443.35853" y2="535.06642" gradientUnits="userSpaceOnUse"><stop offset="0" stop-color="#39b54a"/><stop offset="0.27145" stop-color="#5abc46"/><stop offset="0.55759" stop-color="#75c142"/><stop offset="0.80999" stop-color="#86c540"/><stop offset="1" stop-color="#8cc63f"/></linearGradient><linearGradient id="linear-gradient-6" x1="1071.02265" y1="724.423" x2="795.79466" y2="748.53618" xlink:href="#linear-gradient"/></defs><path class="cls-1" d="M647.66,628.45V833.76a39.29745,39.29745,0,0,1-36.04,36.54h-.29c-1.0498.09-2.10986.13-3.17993.13-1.05981,0-2.11987-.04-3.15991-.13a39.31139,39.31139,0,0,1-35.64014-32.89c-.08984-.52-.15991-1.05-.22-1.57v-9.42c.06006-.53.13013-1.05.22-1.57V628.84q0-42.20994-21.88989-65.26-21.88513-23.025-61.40991-23.03c-5.14014,0-16.68018-.28-29.99024,4.63a74.21255,74.21255,0,0,0-8.76977,3.92,64.44224,64.44224,0,0,0-10.3501,6.73s-.59009.48-1.51,1.29c-.58008.51-1.3,1.15-2.08984,1.9-.75.71-1.58008,1.51-2.40015,2.37-.43994.46-.88989.94-1.33008,1.42-15.01,16.67-18.87988,39.49-19.74,54.87-.16992,2.97-.22,5.66-.22,7.98v.11l-.03-.13c.01.94.03,1.87.03,2.81V830.01c0-.2-.01-.4-.02-.59v-.03a.30818.30818,0,0,0-.01-.1,39.29964,39.29964,0,0,1-78.29,3.28V628.84q0-42.20994-20.72986-65.26-1.47015-1.635-3.04-3.16-20.385-19.86-55.69007-19.87c-1.28992,0-2.56994.02-3.81994.06q-35.625.96-55.49,20.28-20.94,20.35493-20.92005,57.2V826.76c.07007.59.12012,1.19.16,1.79.04.6.06994,1.2.07995,1.8v1.7c-.01.6-.03992,1.19-.07995,1.78-.03992.6-.09,1.2-.16,1.8v.03a38.65448,38.65448,0,0,1-1.34985,6.67A39.30991,39.30991,0,0,1,136.57,870.3c-.27.03-.53992.06-.80994.08-1.04.08-2.1001.13-3.17005.13s-2.12-.05-3.16-.13c-.27-.02-.54-.05-.82007-.08H128.32a39.31175,39.31175,0,0,1-34.83-32.82c-.06006-.38-.12012-.76-.17-1.14V547.94a78.37494,78.37494,0,0,1,66.69006-75.28,1.77241,1.77241,0,0,0,.49.06,11.14311,11.14311,0,0,1,11.13989,11.14v36.1a2.18328,2.18328,0,0,0,3.98,1.24,133.92266,133.92266,0,0,1,36.13013-35.55c.66992-.44,1.33-.87,2-1.29.22-.14.43994-.28.65991-.41a.74169.74169,0,0,1,.12012-.07c.37988-.24.75-.47,1.12988-.7q.345-.21.69006-.42c.27991-.17.55994-.33.84-.5.2-.12.41-.24.62-.36005.19006-.11.38-.22.55993-.32.25-.14.5-.28.76-.42.13013-.08.27-.16.40015-.23.26-.15.52991-.3.78992-.44.26-.15.53-.29.79992-.43,1.05-.57,2.12012-1.13,3.19007-1.66l.21008-.11c.09985-.05.21-.1.30993-.15q2.32489-1.155,4.70008-2.19A117.879,117.879,0,0,1,277.59,466.07q41.835,0,71.39,19c.55.35,1.09985.71,1.63989,1.07q28.36524,18.94493,43.48,54.41a.06.06,0,0,1,.01.04,2.13649,2.13649,0,0,0,1.27,1.2,2.05907,2.05907,0,0,0,1.07007.12,1.98823,1.98823,0,0,0,.89014-.34.47507.47507,0,0,0,.11987-.09,1.566,1.566,0,0,0,.3-.26c.06006-.07.10986-.14.15991-.21l.01-.01a1.74,1.74,0,0,0,.11011-.18.21022.21022,0,0,1,.03-.05005A166.94479,166.94479,0,0,1,417.47,511.83a136.85777,136.85777,0,0,1,26.15991-24.07,115.96808,115.96808,0,0,1,68.14014-21.69q33.56982,0,59.52,11.57995a116.65284,116.65284,0,0,1,13.99,7.42005q30.52477,19.005,46.43994,55.48Q647.6502,577.015,647.66,628.45Z"/><path class="cls-1" d="M809.43415,661.27943c-.42609,1.28795-.83284,2.59523-1.21046,3.91226C808.60131,663.87466,808.99837,662.56738,809.43415,661.27943Z"/><path class="cls-1" d="M804.79009,357.4c.01977.39.01977.79.01977,1.18V357.4Z"/><path class="cls-1" d="M894.99,502.77a187.31655,187.31655,0,0,0-35.76,3.19c-1.42993.27-2.86011.55-4.28.86005q-1.36487.285-2.73.6c-.23.04-.44995.09-.67993.15-.98023.23-1.97.46-2.94019.71-.96.23-1.91992.48-2.85986.74-.58008.14-1.1499.3-1.72.46-.59009.15-1.17017.32-1.74.49-.58008.16-1.15015.32-1.71.5-1.11011.32-2.21021.66-3.3,1.01-.94019.29-1.87012.6-2.80005.91-1,.33-2,.68-3,1.03-.43994.15-.87012.31-1.3.47-.84009.3-1.67993.61-2.51.93h-.01c-1.12988.43-2.24.86-3.34985,1.31-1.12012.45-2.23.9-3.33008,1.37-1.12012.47-2.22.95-3.31006,1.44-1.08984.49-2.17993.99-3.25,1.49-1.08984.51-2.15991,1.03-3.23,1.56-1.08008.53-2.13989,1.07-3.19995,1.62-1.06006.54-2.11011,1.1-3.15991,1.67h-.01026V358.58c0-.39,0-.79-.01977-1.18-.01-.6-.02-1.19-.04-1.78-.01-.59-.04-1.18-.07007-1.78-.02-.49-.04-1-.07007-1.49-.12988-2.08-.31982-4.15-.57983-6.19-.07007-.55-.15015-1.09-.23-1.63-.08008-.57-.16016-1.14-.26-1.71-.09009-.57-.18018-1.14-.29-1.71-.28-1.52-.58008-3.02-.92017-4.5-.12988-.56-.25976-1.12-.3999-1.67-.13989-.56-.28-1.11-.42993-1.66-.14014-.52-.27-1.02-.42017-1.54q-.23987-.87-.50976-1.74c-.4502-1.45-.92017-2.88-1.42017-4.3-.51-1.41-1.05-2.82-1.60986-4.2-.3-.74-.61011-1.47-.93018-2.2q-.88476-1.995-1.82983-3.93c-.25-.51-.5-1.01-.77-1.51-.16992-.33-.33008-.66-.51-.98-.37012-.7-.74-1.39-1.13013-2.08-.38989-.69-.77978-1.37-1.17993-2.05-.38989-.66-.79-1.32-1.19995-1.97a.67246.67246,0,0,0-.07007-.11c-.36987-.59-.74-1.16-1.11011-1.74-.50976-.77-1.01977-1.53-1.5498-2.28-.33008-.48-.66992-.97-1.03-1.44-.1001-.16-.22-.31-.33008-.47-.42993-.58-.85986-1.14-1.29-1.71a.26649.26649,0,0,0-.05005-.06q-.70458-.93-1.43994-1.83c-.49-.61-.99-1.21-1.5-1.81-.5-.6-1.01-1.19-1.54-1.77-.52-.59-1.0498-1.17-1.57983-1.74-.03-.03-.06006-.07-.09009-.1-.51-.54-1.02-1.07-1.54-1.6-1.97-2.02-4.02-3.95-6.1499-5.77-.48-.41-.96-.82-1.44995-1.23a1.82565,1.82565,0,0,0-.16016-.13c-.26977-.21-.53-.43-.78979-.64-.89014-.73-1.79-1.43-2.71021-2.11-.28979-.23-.58984-.44-.87988-.65-1.62012-1.2-3.29-2.34-4.99-3.43-.57007-.37-1.14014-.73-1.72-1.08-1.09009-.67-2.19019-1.31-3.30005-1.94-.36011-.2-.72-.4-1.09009-.6-.60986-.33-1.23-.66-1.84985-.98q-2.79016-1.44-5.68018-2.7c-.31982-.15-.6499-.29-.98-.42-.3999-.18-.7998-.35-1.21-.51-.77-.31-1.55-.62-2.33984-.92-.79-.3-1.58008-.59-2.38013-.86005-.46-.17-.92993-.32995-1.3999-.48-.89014-.29-1.79-.58-2.69995-.85-1.42017-.43-2.8501-.82-4.30005-1.18-.53-.14-1.07007-.27-1.61011-.39-.24-.06-.5-.12-.75-.17-.3501-.08-.69995-.16-1.05005-.23-.82007-.18-1.6499-.34-2.48-.49-.48-.1-.96-.18-1.44995-.26-.93994-.17-1.89014-.31-2.84009-.44-.38989-.06-.78979-.11-1.17993-.16-.66992-.09-1.3501-.17-2.03-.24-.77-.08-1.55-.16-2.32983-.22a1.088,1.088,0,0,1-.18018.01,7.96586,7.96586,0,0,0-7.95,7.96V689.66c0,.58,0,1.18.01,1.76a186.93758,186.93758,0,0,0,351.23,87.3l.01-.04a185.88754,185.88754,0,0,0,22.54-90.24C1080.07988,586.58,996.86992,503.39,894.99,502.77Zm59.03,252.42a88.98534,88.98534,0,0,1-149.21021-65.53c0-.35,0-.7.01026-1.04,0-.35.00976-.69.02-1.04.00976-.7.03979-1.39.06982-2.08.09009-1.74.21-3.46.39014-5.18.17993-1.72.3999-3.42005.67993-5.12.11011-.68005.23-1.35.36011-2.02.12988-.68.25976-1.34.3999-2.01q.6449-3.03,1.48-5.98c.37988-1.32.79-2.62,1.21-3.91a89.065,89.065,0,0,1,96.8999-59.77h.01026a87.4048,87.4048,0,0,1,13.77978,3.08,88.9888,88.9888,0,0,1,33.90015,150.6Z"/><path class="cls-2" d="M860.45762,607.03134a89.43778,89.43778,0,0,0-51.02347,54.24809c-.42609,1.28795-.83284,2.59523-1.21046,3.91226q-.84251,2.94864-1.48164,5.97483-.42121,2.00454-.7553,4.03809a90.86477,90.86477,0,0,0-1.07493,10.29379c-.0678,1.38476-.09682,2.76953-.09682,4.164v-164.381a185.494,185.494,0,0,1,54.41277-19.319Z"/><path class="cls-3" d="M804.815,357.40465V402.463H706.94175V269.01179a7.95767,7.95767,0,0,1,7.95034-7.96,1.05067,1.05067,0,0,0,.1743-.0097,97.86257,97.86257,0,0,1,89.72923,96.3626Z"/><path class="cls-4" d="M248.04655,540.6087q-35.61651.95724-55.4889,20.28364-20.93165,20.34941-20.92176,57.19939v-98.1351a2.18826,2.18826,0,0,0,3.98694,1.24348,133.77372,133.77372,0,0,1,36.12633-35.54735,120.16854,120.16854,0,0,1,17.78355-9.7043Z"/><path class="cls-5" d="M171.63994,483.86v66.17H93.29009c0-.7.00989-1.39.02991-2.09a78.37494,78.37494,0,0,1,66.69006-75.28,1.77241,1.77241,0,0,0,.49.06A11.14311,11.14311,0,0,1,171.63994,483.86Z"/><path class="cls-6" d="M447.29009,549.1a64.44224,64.44224,0,0,0-10.3501,6.73s-.59009.48-1.51,1.29c-.58008.51-1.3,1.15-2.08984,1.9-.75.71-1.58008,1.51-2.40015,2.37-.43994.46-.88989.94-1.33008,1.42-15.01,16.67-18.87988,39.49-19.74,54.87a195.10529,195.10529,0,0,0-14.5498-75.9c.02,0,.03979.01.05981.01a2.57386,2.57386,0,0,0,1.96021-.22.96027.96027,0,0,0,.11987-.09,1.566,1.566,0,0,0,.3-.26,1.3134,1.3134,0,0,0,.15991-.21l.01-.01a.968.968,0,0,0,.11011-.18.21022.21022,0,0,1,.03-.05005A166.94479,166.94479,0,0,1,417.47,511.83Z"/><path class="cls-7" d="M1030.17471,817.5A186.93137,186.93137,0,0,1,786.6249,842.77c-2.95019-37.49,6.01-84.47,22.09985-127A89.02513,89.02513,0,1,0,920.1249,604.59a87.40873,87.40873,0,0,0-13.78-3.08C966.0248,596.88,1072.55483,709.01,1030.17471,817.5Z"/></svg>