<svg id="Ebene_1" data-name="Ebene 1" xmlns="http://www.w3.org/2000/svg" viewBox="0 0 1170 1170">
  <defs>
    <style>
      .cls-1 {
        opacity: 0;
      }

      .cls-2 {
        fill: #11224d;
      }

      .cls-3 {
        fill: #f98125;
        opacity: 0.86;
      }
    </style>
  </defs>
  <g class="cls-1">
    <rect class="cls-2" x="0.5" y="0.5" width="1169" height="1169"/>
    <path d="M1169,1.5v1168H1V1.5H1169m1-1H0v1170H1170V.5Z" transform="translate(0 -0.5)"/>
  </g>
  <path class="cls-3" d="M1141.87122,366.93774A380.76352,380.76352,0,0,0,1147,307.38861c0-101.87866-52.748-147.93-130.54126-147.93H727.89758l-.00671.04138h-7.88835a24.6784,24.6784,0,0,0-21.66191,12.85531L419.26626,683.66613c-6.92572,12.68909-25.875,10.03784-29.05216-4.06479L284.64151,210.99774A66.00439,66.00439,0,0,0,220.251,159.5h-8.41629a69.22017,69.22017,0,0,0-68.3469,58.25965L20.58423,984.1538a24.67842,24.67842,0,0,0,24.36708,28.58607h47.909a24.67841,24.67841,0,0,0,24.36711-20.771l89.27694-556.74244c2.58731-16.13478,25.53835-16.86283,29.14307-.92447l97.8954,432.84651a36.92029,36.92029,0,0,0,36.01078,28.77586h11.98106a34.78631,34.78631,0,0,0,30.51981-18.09413L645.74421,450.55464c9.66621-17.67359,36.63555-8.44368,33.446,11.44648L595.45994,984.154a24.67842,24.67842,0,0,0,24.36712,28.58583h68.94558l.03846-.23987H890.0354c109.20239,0,185.573-72.15375,214.212-250.75153q6.06463-37.73922,6.06469-69.27545c0-54.18009-13.58906-94.27523-41.67436-118.72418a25.258,25.258,0,0,1,.30041-38.55985C1110.42428,500.69025,1130.31393,438.91294,1141.87122,366.93774ZM1008.70923,761.947C992.12488,865.31439,948.062,909.72809,893.25488,909.72809H734.38549a24.67841,24.67841,0,0,1-24.36726-28.58488l39.40706-245.8084a24.67842,24.67842,0,0,1,24.36727-20.77194H940.57471c45.33569,0,72.55212,31.46179,72.55212,96.86663A320.7297,320.7297,0,0,1,1008.70923,761.947Zm30.58569-375.30847c-14.03857,87.438-51.06347,124.80511-97.29761,124.80511H798.43937a24.67841,24.67841,0,0,1-24.36726-28.58487l32.03214-199.80668a24.67843,24.67843,0,0,1,24.36727-20.772h151.508c38.14795,0,61.05908,26.40009,61.05908,81.53266A271.14135,271.14135,0,0,1,1039.29492,386.63855Z" transform="translate(0 -0.5)"/>
</svg>
