<svg id="Ebene_1" data-name="Ebene 1" xmlns="http://www.w3.org/2000/svg" xmlns:xlink="http://www.w3.org/1999/xlink" viewBox="0 0 1000 1000"><defs><style>.cls-1,.cls-3{fill:none;stroke:#8cc63f;stroke-miterlimit:10;}.cls-1{stroke-width:2px;}.cls-2{fill:url(#radial-gradient);}.cls-3{stroke-width:3px;}</style><radialGradient id="radial-gradient" cx="500" cy="500" r="222.6" gradientTransform="translate(50.7637 50.7637) scale(0.89847 0.89847)" gradientUnits="userSpaceOnUse"><stop offset="0" stop-color="#8cc63f"/><stop offset="0.2283" stop-color="#88c53f"/><stop offset="0.44448" stop-color="#7dc341"/><stop offset="0.65585" stop-color="#6abf44"/><stop offset="0.86292" stop-color="#4fba47"/><stop offset="1" stop-color="#39b54a"/></radialGradient></defs><path class="cls-1" d="M300,700a198.72448,198.72448,0,0,1,26.77442-99.98652,200.0291,200.0291,0,0,1,73.23906-273.2389A199.09687,199.09687,0,0,0,300,300c-110.46467,0-200,89.53533-200,200,0,220.90238,179.09762,400,400,400C389.53533,900,300,810.46467,300,700Z"/><path class="cls-1" d="M900,500c0,220.90238-179.09762,400-400,400-110.46467,0-200-89.53533-200-200a198.72448,198.72448,0,0,1,26.77442-99.98652,200.74476,200.74476,0,0,0,73.23906,73.21194,200.13158,200.13158,0,0,0,200,0A198.72345,198.72345,0,0,0,700,700C810.46467,700,900,610.46467,900,500Z"/><path class="cls-1" d="M900,500c0,110.46467-89.53533,200-200,200a198.72345,198.72345,0,0,1-99.98652-26.77458,200.05935,200.05935,0,0,0,73.2121-273.21194A199.09793,199.09793,0,0,0,700,300c0-110.46467-89.53533-200-200-200C720.90238,100,900,279.09762,900,500Z"/><path class="cls-1" d="M700,300a199.09793,199.09793,0,0,1-26.77442,100.01348A199.88379,199.88379,0,0,0,500,300a198.64907,198.64907,0,0,0-99.98652,26.77458A199.09687,199.09687,0,0,0,300,300c-110.46467,0-200,89.53533-200,200,0-220.90238,179.09762-400,400-400C610.46467,100,700,189.53533,700,300Z"/><circle class="cls-2" cx="500" cy="500" r="200"/><circle class="cls-3" cx="500" cy="500" r="400"/></svg>