<svg id="Ebene_1" data-name="Ebene 1" xmlns="http://www.w3.org/2000/svg" xmlns:xlink="http://www.w3.org/1999/xlink" viewBox="0 0 1000 1000"><defs><style>.cls-1{fill:#8cc63f;}.cls-2{fill:url(#radial-gradient);}.cls-3{fill:url(#radial-gradient-2);}.cls-4{fill:url(#radial-gradient-3);}.cls-5{fill:url(#radial-gradient-4);}</style><radialGradient id="radial-gradient" cx="370.75" cy="564.625" r="164.76207" gradientTransform="translate(-273.69439 -273.69439) scale(1.54739)" gradientUnits="userSpaceOnUse"><stop offset="0" stop-color="#8cc63f"/><stop offset="0.2283" stop-color="#88c53f"/><stop offset="0.44448" stop-color="#7dc341"/><stop offset="0.65585" stop-color="#6abf44"/><stop offset="0.86292" stop-color="#4fba47"/><stop offset="1" stop-color="#39b54a"/></radialGradient><radialGradient id="radial-gradient-2" cx="564.625" cy="629.25" r="164.76207" xlink:href="#radial-gradient"/><radialGradient id="radial-gradient-3" cx="629.25" cy="435.375" r="164.76207" xlink:href="#radial-gradient"/><radialGradient id="radial-gradient-4" cx="435.375" cy="370.75" r="164.76207" xlink:href="#radial-gradient"/></defs><path d="M219.27281,775.98676h-.08089v-13.7646C219.19192,766.80115,219.19192,771.40743,219.27281,775.98676Z"/><path class="cls-1" d="M219.19192,762.22216v13.7646h.08089C219.19192,771.40743,219.19192,766.80115,219.19192,762.22216Z"/><path class="cls-2" d="M300,700a198.72448,198.72448,0,0,1,26.77442-99.98652,200.0291,200.0291,0,0,1,73.23906-273.2389A199.09687,199.09687,0,0,0,300,300c-110.46467,0-200,89.53533-200,200,0,220.90238,179.09762,400,400,400C389.53533,900,300,810.46467,300,700Zm-80.80808,75.98676v-13.7646c0,4.579,0,9.18527.08089,13.7646Z"/><path class="cls-3" d="M900,500c0,220.90238-179.09762,400-400,400-110.46467,0-200-89.53533-200-200a198.72448,198.72448,0,0,1,26.77442-99.98652,200.74476,200.74476,0,0,0,73.23906,73.21194,200.13158,200.13158,0,0,0,200,0A198.72345,198.72345,0,0,0,700,700C810.46467,700,900,610.46467,900,500Z"/><path class="cls-4" d="M900,500c0,110.46467-89.53533,200-200,200a198.72345,198.72345,0,0,1-99.98652-26.77458,200.05935,200.05935,0,0,0,73.2121-273.21194A199.09793,199.09793,0,0,0,700,300c0-110.46467-89.53533-200-200-200C720.90238,100,900,279.09762,900,500Z"/><path class="cls-5" d="M700,300a199.09793,199.09793,0,0,1-26.77442,100.01348A199.88379,199.88379,0,0,0,500,300a198.64907,198.64907,0,0,0-99.98652,26.77458A199.09687,199.09687,0,0,0,300,300c-110.46467,0-200,89.53533-200,200,0-220.90238,179.09762-400,400-400C610.46467,100,700,189.53533,700,300Z"/></svg>